<mxfile host="app.diagrams.net" modified="2023-12-27T10:48:06.615Z" agent="Mozilla/5.0 (Windows NT 10.0; Win64; x64) AppleWebKit/537.36 (KHTML, like Gecko) Chrome/120.0.0.0 Safari/537.36" etag="h7WI4t3zfBKxzjaeFb-a" version="22.1.12" type="device">
  <diagram name="Pagina-1" id="TkCxHRy4Qt4PwhqFeEuS">
    <mxGraphModel dx="1123" dy="1228" grid="0" gridSize="10" guides="1" tooltips="1" connect="1" arrows="1" fold="1" page="0" pageScale="1" pageWidth="827" pageHeight="1169" math="0" shadow="0">
      <root>
        <mxCell id="0" />
        <mxCell id="1" parent="0" />
        <mxCell id="E7xiT3TeuYfsHHMcbNf6-1" value="Home is loaded" style="rounded=0;whiteSpace=wrap;html=1;fontSize=16;" vertex="1" parent="1">
          <mxGeometry x="-115" y="-261" width="120" height="60" as="geometry" />
        </mxCell>
        <mxCell id="E7xiT3TeuYfsHHMcbNf6-2" value="" style="endArrow=classic;html=1;rounded=0;fontSize=12;startSize=8;endSize=8;curved=1;" edge="1" parent="1">
          <mxGeometry width="50" height="50" relative="1" as="geometry">
            <mxPoint x="35" y="-228" as="sourcePoint" />
            <mxPoint x="104" y="-230" as="targetPoint" />
          </mxGeometry>
        </mxCell>
        <mxCell id="E7xiT3TeuYfsHHMcbNf6-3" value="window listens to url change event&lt;br&gt;" style="rounded=0;whiteSpace=wrap;html=1;fontSize=16;" vertex="1" parent="1">
          <mxGeometry x="122" y="-261" width="120" height="60" as="geometry" />
        </mxCell>
        <mxCell id="E7xiT3TeuYfsHHMcbNf6-5" value="" style="endArrow=none;dashed=1;html=1;rounded=0;fontSize=12;startSize=8;endSize=8;curved=1;" edge="1" parent="1">
          <mxGeometry width="50" height="50" relative="1" as="geometry">
            <mxPoint x="-57" y="-106" as="sourcePoint" />
            <mxPoint x="-57" y="-185" as="targetPoint" />
          </mxGeometry>
        </mxCell>
        <mxCell id="E7xiT3TeuYfsHHMcbNf6-6" value="click on header happens" style="rounded=0;whiteSpace=wrap;html=1;fontSize=16;" vertex="1" parent="1">
          <mxGeometry x="-115" y="-80" width="120" height="60" as="geometry" />
        </mxCell>
        <mxCell id="E7xiT3TeuYfsHHMcbNf6-7" value="" style="endArrow=classic;html=1;rounded=0;fontSize=12;startSize=8;endSize=8;curved=1;" edge="1" parent="1">
          <mxGeometry width="50" height="50" relative="1" as="geometry">
            <mxPoint x="29" y="-47" as="sourcePoint" />
            <mxPoint x="109" y="-49" as="targetPoint" />
          </mxGeometry>
        </mxCell>
        <mxCell id="E7xiT3TeuYfsHHMcbNf6-11" style="edgeStyle=none;curved=1;rounded=0;orthogonalLoop=1;jettySize=auto;html=1;exitX=0.5;exitY=1;exitDx=0;exitDy=0;fontSize=12;startSize=8;endSize=8;" edge="1" parent="1" source="E7xiT3TeuYfsHHMcbNf6-8">
          <mxGeometry relative="1" as="geometry">
            <mxPoint x="185" y="56" as="targetPoint" />
          </mxGeometry>
        </mxCell>
        <mxCell id="E7xiT3TeuYfsHHMcbNf6-8" value="state gets pushed, and url change event fired" style="rounded=0;whiteSpace=wrap;html=1;fontSize=16;" vertex="1" parent="1">
          <mxGeometry x="125" y="-91.5" width="120" height="83" as="geometry" />
        </mxCell>
        <mxCell id="E7xiT3TeuYfsHHMcbNf6-13" style="edgeStyle=none;curved=1;rounded=0;orthogonalLoop=1;jettySize=auto;html=1;fontSize=12;startSize=8;endSize=8;" edge="1" parent="1" source="E7xiT3TeuYfsHHMcbNf6-12">
          <mxGeometry relative="1" as="geometry">
            <mxPoint x="302" y="97" as="targetPoint" />
          </mxGeometry>
        </mxCell>
        <mxCell id="E7xiT3TeuYfsHHMcbNf6-12" value="window reads pathname and fires according func" style="rounded=0;whiteSpace=wrap;html=1;fontSize=16;" vertex="1" parent="1">
          <mxGeometry x="125" y="56" width="120" height="82" as="geometry" />
        </mxCell>
        <mxCell id="E7xiT3TeuYfsHHMcbNf6-14" value="each function replaces the html, readds heazder listeneres, add obervings" style="rounded=0;whiteSpace=wrap;html=1;fontSize=16;" vertex="1" parent="1">
          <mxGeometry x="326" y="28" width="120" height="142" as="geometry" />
        </mxCell>
      </root>
    </mxGraphModel>
  </diagram>
</mxfile>
